# xmcd
#
# Track frame offsets: 
#        150
#        15170
#        29835
#        40687
#        54352
#        69992
#        84782
#        102232
#        119700
#        147557
#        165560
#        182222
#        207405
#        223830
#        236522
#        256990
#        275352
#        292302
#        306637
#        326227
#
# Disc length: 4578 seconds
#
# Revision: 3
# Processed by: cddbd v1.5.2PL0 Copyright (c) Steve Scherf et al.
# Submitted via: ExactAudioCopyFreeDBPlugin 1.0
#
DISCID=3511e014
DTITLE=Etta James - Etta James:  The Chess Box, 1960-1974  [box set]
DYEAR=2000
DGENRE=Rhythm and Blues
TTITLE0=Slow and Easy
TTITLE1=Soul of a Man
TTITLE2=Miss Pitiful
TTITLE3=Finders Keepers, Losers Weepers
TTITLE4=I Found a Love
TTITLE5=W.O.M.A.N.
TTITLE6=Never My Love
TTITLE7=I Never Meant to Love Him
TTITLE8=You Lost That Lovin' Feelin'
TTITLE9=Sail Away
TTITLE10=Down So Low
TTITLE11=All the Way Down
TTITLE12=God's Song (That's Why I Love Mankind)
TTITLE13=Feelin' Uneasy
TTITLE14=St. Louis Blues
TTITLE15=Gonna Have Some Fun Tonight
TTITLE16=Let's Burn Down the Cornfield
TTITLE17=Sookie Sookie
TTITLE18=Out on the Street Again
TTITLE19=Lovin' Arms
EXTD=
EXTT0=
EXTT1=
EXTT2=
EXTT3=
EXTT4=
EXTT5=
EXTT6=
EXTT7=
EXTT8=
EXTT9=
EXTT10=
EXTT11=
EXTT12=
EXTT13=
EXTT14=
EXTT15=
EXTT16=
EXTT17=
EXTT18=
EXTT19=
PLAYORDER=
